<svg xmlns="http://www.w3.org/2000/svg" xmlns:xlink="http://www.w3.org/1999/xlink" preserveAspectRatio="xMidYMid" width="30.406" height="27.219" viewBox="0 0 30.406 27.219">
  <defs>
    <style>
      .cls-1 {
        fill: #ea5514;
        fill-rule: evenodd;
      }
    </style>
  </defs>
  <g>
    <path d="M26.406,23.188 L16.240,23.188 L18.615,20.813 L26.000,20.813 C27.105,20.813 28.000,19.917 28.000,18.813 L28.000,18.406 L28.079,18.406 C28.242,17.936 28.677,17.594 29.203,17.594 C29.729,17.594 30.164,17.936 30.327,18.406 L30.406,18.406 L30.406,19.188 C30.406,21.397 28.615,23.188 26.406,23.188 ZM22.406,16.313 C22.406,16.589 22.182,16.813 21.906,16.813 L8.500,16.813 C8.224,16.813 8.000,16.589 8.000,16.313 L8.000,15.688 C8.000,15.412 8.224,15.188 8.500,15.188 L21.906,15.188 C22.182,15.188 22.406,15.412 22.406,15.688 L22.406,16.313 ZM22.406,12.313 C22.406,12.589 22.182,12.813 21.906,12.813 L8.500,12.813 C8.224,12.813 8.000,12.589 8.000,12.313 L8.000,11.688 C8.000,11.412 8.224,11.188 8.500,11.188 L21.906,11.188 C22.182,11.188 22.406,11.412 22.406,11.688 L22.406,12.313 ZM22.406,7.688 L22.406,8.313 C22.406,8.589 22.182,8.813 21.906,8.813 L8.500,8.813 C8.224,8.813 8.000,8.589 8.000,8.313 L8.000,7.688 C8.000,7.412 8.224,7.188 8.500,7.188 L21.906,7.188 C22.182,7.188 22.406,7.412 22.406,7.688 ZM4.000,8.406 C4.000,8.631 3.818,8.813 3.594,8.813 C3.369,8.813 3.187,8.631 3.187,8.406 C3.187,8.182 3.369,8.000 3.594,8.000 C3.818,8.000 4.000,8.182 4.000,8.406 ZM3.187,5.188 C3.187,4.083 4.083,3.188 5.187,3.188 L12.000,3.188 L12.000,3.594 L12.000,4.000 L5.000,4.000 C4.448,4.000 4.000,4.448 4.000,5.000 L4.000,7.188 L3.187,7.188 L3.187,5.188 ZM12.391,3.188 C12.606,3.188 12.781,3.370 12.781,3.594 C12.781,3.818 12.606,4.000 12.391,4.000 C12.175,4.000 12.000,3.818 12.000,3.594 C12.000,3.370 12.175,3.188 12.391,3.188 ZM29.203,15.188 C28.685,15.188 28.252,14.860 28.083,14.406 L28.000,14.406 L28.000,4.406 C28.000,3.441 27.316,2.636 26.406,2.448 L26.406,2.406 L26.000,2.406 L12.000,2.406 L4.406,2.406 C3.302,2.406 2.406,3.302 2.406,4.406 L2.406,7.188 L2.406,16.000 L2.406,18.813 C2.406,19.917 3.302,20.813 4.406,20.813 L11.773,20.813 L14.147,23.188 L4.000,23.188 C1.791,23.188 -0.000,21.397 -0.000,19.188 L-0.000,4.000 C-0.000,1.791 1.791,0.000 4.000,0.000 L26.406,0.000 C28.615,0.000 30.406,1.791 30.406,4.000 L30.406,14.406 L30.323,14.406 C30.154,14.860 29.722,15.188 29.203,15.188 Z" class="cls-1"/>
    <path d="M15.084,14.406 C15.159,14.402 15.229,14.402 15.303,14.406 L15.084,14.406 ZM12.411,21.594 L14.597,23.780 C14.926,24.109 15.461,24.109 15.790,23.780 L17.976,21.594 L21.372,21.594 C21.297,21.729 21.229,21.867 21.115,21.981 L16.378,26.718 C15.724,27.372 14.663,27.372 14.009,26.718 L9.273,21.981 C9.158,21.867 9.090,21.729 9.016,21.594 L12.411,21.594 Z" class="cls-1"/>
  </g>
</svg>
