<svg xmlns="http://www.w3.org/2000/svg" xmlns:xlink="http://www.w3.org/1999/xlink" preserveAspectRatio="xMidYMid" width="22.688" height="22.688" viewBox="0 0 22.688 22.688">
  <defs>
    <style>
      .cls-1 {
        fill: #ccc;
        fill-rule: evenodd;
      }
    </style>
  </defs>
  <path d="M21.951,4.272 L14.879,11.344 L21.951,18.415 C22.927,19.391 22.927,20.974 21.951,21.950 C20.974,22.926 19.391,22.926 18.415,21.950 L11.344,14.879 L4.273,21.950 C3.297,22.926 1.714,22.926 0.737,21.950 C-0.239,20.974 -0.239,19.391 0.737,18.415 L7.808,11.343 L0.737,4.272 C-0.239,3.296 -0.239,1.713 0.737,0.737 C1.714,-0.239 3.297,-0.239 4.273,0.737 L11.344,7.808 L18.415,0.737 C19.391,-0.239 20.974,-0.239 21.951,0.737 C22.927,1.713 22.927,3.296 21.951,4.272 Z" class="cls-1"/>
</svg>
