<?xml version="1.0" standalone="no"?><!DOCTYPE svg PUBLIC "-//W3C//DTD SVG 1.1//EN" "http://www.w3.org/Graphics/SVG/1.1/DTD/svg11.dtd"><svg t="1499158514315" class="icon" style="" viewBox="0 0 1024 1024" version="1.1" xmlns="http://www.w3.org/2000/svg" p-id="2786" xmlns:xlink="http://www.w3.org/1999/xlink" width="16" height="16"><defs><style type="text/css"></style></defs><path d="M86.804 247.104l0 365.984c0 70.882 56.856 129.926 126.916 129.926l191.068 0 5.85 162.3 185.232-162.3 212.976 0c69.988 0 128.348-57.598 128.348-129.926L937.194 247.104c0-70.894-56.856-128.42-128.348-128.42L213.72 118.684C143.66 118.684 86.804 176.21 86.804 247.104zM633.778 450.768c0-33.962 26.278-60.5 59.84-60.5 33.516 0 59.792 28.03 59.792 60.5 0 33.96-27.71 60.498-59.792 60.498C660.054 511.266 633.778 484.728 633.778 450.768zM451.484 450.768c0-33.962 26.232-60.5 59.794-60.5 33.562 0 59.792 28.03 59.792 60.5 0 33.96-27.722 60.498-59.792 60.498C477.716 511.266 451.484 484.728 451.484 450.768zM269.156 450.768c0-33.962 26.22-60.5 59.77-60.5 33.562 0 59.804 28.03 59.804 60.5 0 33.96-27.712 60.498-59.804 60.498C296.856 511.266 269.156 484.728 269.156 450.768z" p-id="2787" fill="#ea5514"></path></svg>