<svg xmlns="http://www.w3.org/2000/svg" xmlns:xlink="http://www.w3.org/1999/xlink" preserveAspectRatio="xMidYMid" width="36" height="38" viewBox="0 0 36 38">
  <defs>
    <style>
      .cls-1 {
        filter: url(#color-overlay-1);
      }

      .cls-2 {
        fill: #999;
        fill-rule: evenodd;
      }
    </style>

    <filter id="color-overlay-1" filterUnits="userSpaceOnUse">
      <feFlood flood-color="#999"/>
      <feComposite operator="in" in2="SourceGraphic"/>
      <feBlend in2="SourceGraphic" result="solidFill"/>
    </filter>
  </defs>
  <g class="cls-1">
    <path d="M32.000,17.000 L28.000,17.000 L28.000,14.000 L31.500,14.000 C32.328,14.000 33.000,13.328 33.000,12.500 L33.000,11.500 C33.000,10.671 32.328,9.999 31.500,9.999 L24.000,9.999 L22.463,9.999 L13.537,9.999 L10.000,9.999 L4.500,9.999 C3.671,9.999 3.000,10.671 3.000,11.500 L3.000,12.500 C3.000,13.328 3.671,14.000 4.500,14.000 L5.000,14.000 L5.000,14.091 C5.157,14.036 5.324,14.000 5.500,14.000 C6.328,14.000 7.000,14.671 7.000,15.500 C7.000,16.328 6.328,17.000 5.500,17.000 C5.324,17.000 5.157,16.964 5.000,16.908 L5.000,17.000 L4.000,17.000 C1.791,17.000 -0.000,15.209 -0.000,13.000 L-0.000,10.999 C-0.000,8.790 1.791,6.999 4.000,6.999 L11.000,6.999 L12.090,6.999 L23.910,6.999 L25.000,6.999 L32.000,6.999 C34.209,6.999 36.000,8.790 36.000,10.999 L36.000,13.000 C36.000,15.209 34.209,17.000 32.000,17.000 ZM21.000,6.000 C21.000,4.342 19.657,2.999 18.000,2.999 C16.343,2.999 15.000,4.342 15.000,6.000 L12.000,6.000 C12.000,6.000 12.000,6.000 12.000,5.999 C12.000,2.686 14.686,-0.001 18.000,-0.001 C21.314,-0.001 24.000,2.686 24.000,5.999 C24.000,6.000 24.000,6.000 24.000,6.000 L21.000,6.000 ZM6.000,11.999 L6.000,11.499 L6.000,10.999 L14.000,10.999 L14.000,11.499 L14.000,11.999 L6.000,11.999 ZM5.500,11.999 C5.224,11.999 5.000,11.776 5.000,11.499 C5.000,11.224 5.224,10.999 5.500,10.999 C5.776,10.999 6.000,11.224 6.000,11.499 C6.000,11.776 5.776,11.999 5.500,11.999 ZM14.500,10.999 C14.776,10.999 15.000,11.224 15.000,11.499 C15.000,11.776 14.776,11.999 14.500,11.999 C14.224,11.999 14.000,11.776 14.000,11.499 C14.000,11.224 14.224,10.999 14.500,10.999 ZM16.500,10.999 C16.776,10.999 17.000,11.224 17.000,11.499 C17.000,11.776 16.776,11.999 16.500,11.999 C16.224,11.999 16.000,11.776 16.000,11.499 C16.000,11.224 16.224,10.999 16.500,10.999 Z" class="cls-2"/>
    <path d="M27.000,37.999 L9.000,37.999 C6.791,37.999 5.000,36.209 5.000,33.999 L5.000,17.000 C5.000,15.796 5.538,14.729 6.381,14.000 L8.000,14.000 L8.000,32.999 C8.000,34.104 8.895,34.999 10.000,34.999 L26.000,34.999 C27.104,34.999 28.000,34.104 28.000,32.999 L28.000,20.999 L31.000,20.999 L31.000,33.999 C31.000,36.209 29.209,37.999 27.000,37.999 ZM24.000,33.000 C23.448,33.000 23.000,32.552 23.000,32.000 C23.000,32.000 23.000,32.000 23.000,31.999 L23.000,31.999 L23.000,28.000 C23.000,27.447 23.448,27.000 24.000,27.000 C24.552,27.000 25.000,27.447 25.000,28.000 L25.000,31.999 L25.000,31.999 C25.000,32.000 25.000,32.000 25.000,32.000 C25.000,32.552 24.552,33.000 24.000,33.000 ZM24.000,25.999 C23.448,25.999 23.000,25.552 23.000,24.999 L23.000,17.999 C23.000,17.447 23.448,17.000 24.000,17.000 C24.552,17.000 25.000,17.447 25.000,17.999 L25.000,24.999 C25.000,25.552 24.552,25.999 24.000,25.999 ZM18.000,33.000 C17.448,33.000 17.000,32.552 17.000,32.000 C17.000,32.000 17.000,32.000 17.000,31.999 L17.000,31.999 L17.000,23.999 L17.000,23.999 C17.000,23.447 17.448,22.999 18.000,22.999 C18.552,22.999 19.000,23.447 19.000,23.999 L19.000,23.999 L19.000,31.999 L19.000,31.999 C19.000,32.000 19.000,32.000 19.000,32.000 C19.000,32.552 18.552,33.000 18.000,33.000 ZM18.000,22.000 C17.448,22.000 17.000,21.552 17.000,21.000 C17.000,21.000 17.000,21.000 17.000,20.999 L17.000,20.999 L17.000,17.999 C17.000,17.447 17.448,17.000 18.000,17.000 C18.552,17.000 19.000,17.447 19.000,17.999 L19.000,20.999 L19.000,20.999 C19.000,21.000 19.000,21.000 19.000,21.000 C19.000,21.552 18.552,22.000 18.000,22.000 ZM12.000,33.000 C11.448,33.000 11.000,32.552 11.000,32.000 C11.000,32.000 11.000,32.000 11.000,31.999 L11.000,31.999 L11.000,27.000 C11.000,26.447 11.448,25.999 12.000,25.999 C12.552,25.999 13.000,26.447 13.000,27.000 L13.000,31.999 L13.000,31.999 C13.000,32.000 13.000,32.000 13.000,32.000 C13.000,32.552 12.552,33.000 12.000,33.000 ZM12.000,24.999 C11.448,24.999 11.000,24.552 11.000,23.999 L11.000,17.999 C11.000,17.447 11.448,17.000 12.000,17.000 C12.552,17.000 13.000,17.447 13.000,17.999 L13.000,23.999 C13.000,24.552 12.552,24.999 12.000,24.999 Z" class="cls-2"/>
    <path d="M29.500,17.000 C28.671,17.000 28.000,16.328 28.000,15.500 C28.000,14.671 28.671,14.000 29.500,14.000 C30.328,14.000 31.000,14.671 31.000,15.500 C31.000,16.328 30.328,17.000 29.500,17.000 ZM29.500,18.999 C30.328,18.999 31.000,19.671 31.000,20.500 C31.000,21.328 30.328,22.000 29.500,22.000 C28.671,22.000 28.000,21.328 28.000,20.500 C28.000,19.671 28.671,18.999 29.500,18.999 Z" class="cls-2"/>
  </g>
</svg>
