<svg xmlns="http://www.w3.org/2000/svg" xmlns:xlink="http://www.w3.org/1999/xlink" preserveAspectRatio="xMidYMid" width="35" height="35" viewBox="0 0 35 35">
  <defs>
    <style>
      .cls-1 {
        fill: #666;
        fill-rule: evenodd;
      }
    </style>
  </defs>
  <g>
    <path d="M32.000,35.000 L30.000,35.000 L30.000,34.899 C29.673,34.954 29.343,35.000 29.000,35.000 L22.000,35.000 C20.198,35.000 18.600,34.189 17.500,32.931 C16.400,34.189 14.802,35.000 13.000,35.000 L6.000,35.000 C5.657,35.000 5.327,34.954 5.000,34.899 L5.000,35.000 L3.000,35.000 L-0.000,35.000 L-0.000,32.000 L-0.000,30.000 L0.099,30.000 C0.041,29.675 -0.000,29.343 -0.000,29.000 L-0.000,22.000 C-0.000,20.198 0.811,18.600 2.069,17.500 C0.811,16.400 -0.000,14.802 -0.000,13.000 L-0.000,6.000 C-0.000,5.657 0.041,5.325 0.099,5.000 L-0.000,5.000 L-0.000,3.000 L-0.000,-0.000 L3.000,-0.000 L5.000,-0.000 L5.000,0.101 C5.327,0.046 5.657,-0.000 6.000,-0.000 L13.000,-0.000 C16.314,-0.000 19.000,2.686 19.000,6.000 L19.000,13.000 C19.000,14.106 18.668,15.116 18.141,16.000 L19.000,16.000 L21.000,16.000 L21.000,16.102 C21.325,16.042 21.656,16.000 22.000,16.000 L29.000,16.000 C32.314,16.000 35.000,18.686 35.000,22.000 L35.000,29.000 C35.000,29.343 34.959,29.675 34.901,30.000 L35.000,30.000 L35.000,32.000 L35.000,35.000 L32.000,35.000 ZM16.000,14.000 L15.816,14.000 C15.928,13.686 16.000,13.353 16.000,13.000 L16.000,6.000 C16.000,4.343 14.657,3.000 13.000,3.000 L6.000,3.000 C5.647,3.000 5.314,3.072 5.000,3.184 L5.000,3.000 L3.000,3.000 L3.000,5.000 L3.184,5.000 C3.072,5.314 3.000,5.647 3.000,6.000 L3.000,13.000 C3.000,14.657 4.343,16.000 6.000,16.000 L13.000,16.000 C13.353,16.000 13.686,15.928 14.000,15.816 L14.000,16.000 L16.000,16.000 L16.000,14.000 ZM16.000,22.000 C16.000,21.647 15.928,21.314 15.816,21.000 L16.000,21.000 L16.000,19.000 L14.000,19.000 L14.000,19.184 C13.686,19.072 13.353,19.000 13.000,19.000 L6.000,19.000 C4.343,19.000 3.000,20.343 3.000,22.000 L3.000,29.000 C3.000,29.353 3.072,29.686 3.184,30.000 L3.000,30.000 L3.000,32.000 L5.000,32.000 L5.000,31.816 C5.314,31.928 5.647,32.000 6.000,32.000 L13.000,32.000 C14.657,32.000 16.000,30.657 16.000,29.000 L16.000,22.000 ZM32.000,30.000 L31.816,30.000 C31.928,29.686 32.000,29.353 32.000,29.000 L32.000,22.000 C32.000,20.343 30.657,19.000 29.000,19.000 L22.000,19.000 C21.647,19.000 21.314,19.072 21.000,19.184 L21.000,19.000 L19.000,19.000 L19.000,21.000 L19.184,21.000 C19.072,21.314 19.000,21.647 19.000,22.000 L19.000,29.000 C19.000,30.657 20.343,32.000 22.000,32.000 L29.000,32.000 C29.353,32.000 29.686,31.928 30.000,31.816 L30.000,32.000 L32.000,32.000 L32.000,30.000 Z" class="cls-1"/>
    <path d="M13.706,13.000 L13.000,13.000 C13.293,13.000 13.569,12.933 13.820,12.820 C13.791,12.886 13.742,12.939 13.706,13.000 ZM10.500,14.000 C10.224,14.000 10.000,13.776 10.000,13.500 C10.000,13.224 10.224,13.000 10.500,13.000 C10.776,13.000 11.000,13.224 11.000,13.500 C11.000,13.776 10.776,14.000 10.500,14.000 ZM5.000,12.000 L5.000,7.000 L6.000,7.000 L6.000,11.000 C6.000,12.105 6.895,13.000 8.000,13.000 L9.000,13.000 L9.000,14.000 L7.000,14.000 C5.895,14.000 5.000,13.105 5.000,12.000 Z" class="cls-1"/>
    <path d="M34.899,13.000 C34.692,13.580 34.151,14.000 33.500,14.000 C32.849,14.000 32.308,13.580 32.101,13.000 L32.000,13.000 L32.000,3.000 L23.000,3.000 L23.000,2.899 C22.420,2.692 22.000,2.151 22.000,1.500 C22.000,0.849 22.420,0.308 23.000,0.101 L23.000,-0.000 L35.000,-0.000 L35.000,13.000 L34.899,13.000 ZM18.000,3.000 L19.000,3.000 L19.000,16.000 L18.000,16.000 L18.000,3.000 Z" class="cls-1"/>
  </g>
</svg>
