<svg xmlns="http://www.w3.org/2000/svg" xmlns:xlink="http://www.w3.org/1999/xlink" preserveAspectRatio="xMidYMid" width="35.5" height="31" viewBox="0 0 35.5 31">
  <defs>
    <style>
      .cls-1, .cls-2 {
        stroke: #fff;
        stroke-width: 2px;
        fill: none;
        fill-rule: evenodd;
      }

      .cls-1 {
        stroke-linejoin: round;
      }
    </style>
  </defs>
  <g>
    <path d="M34.500,10.150 C34.500,10.150 34.498,10.337 34.465,10.665 C34.412,11.348 34.291,12.009 34.096,12.636 C33.288,15.741 30.861,21.239 23.556,26.143 C19.200,29.083 18.091,29.910 17.792,29.982 C17.776,29.986 17.768,30.000 17.751,30.000 C17.736,30.000 17.729,29.988 17.715,29.986 C17.433,29.931 16.360,29.125 11.940,26.143 C4.294,21.013 1.994,15.231 1.300,12.222 C1.177,11.751 1.086,11.262 1.039,10.763 C0.996,10.369 0.996,10.150 0.996,10.150 L1.009,10.144 C1.009,10.083 1.001,10.026 1.001,9.961 C1.001,5.014 4.996,1.000 9.926,1.000 C12.788,1.000 15.335,2.362 16.966,4.475 C16.971,4.475 16.981,4.473 16.981,4.473 C17.158,4.712 17.430,4.879 17.748,4.879 C18.061,4.879 18.329,4.723 18.508,4.492 C18.511,4.494 18.513,4.494 18.519,4.496 C20.150,2.372 22.701,1.000 25.577,1.000 C30.502,1.000 34.500,5.014 34.500,9.961 C34.500,10.027 34.493,10.086 34.490,10.149 L34.500,10.150 Z" class="cls-1"/>
    <path d="M7.250,7.082 C7.250,7.082 7.474,7.913 7.937,9.194 C8.635,11.129 9.875,14.089 11.705,16.762 M12.917,18.372 C13.242,18.763 13.582,19.141 13.937,19.499 " class="cls-2"/>
  </g>
</svg>
