<svg xmlns="http://www.w3.org/2000/svg" xmlns:xlink="http://www.w3.org/1999/xlink" preserveAspectRatio="xMidYMid" width="38" height="34" viewBox="0 0 38 34">
  <defs>
    <style>
      .cls-1 {
        filter: url(#color-overlay-1);
      }

      .cls-2 {
        fill: #ea5514;
        fill-rule: evenodd;
      }
    </style>

    <filter id="color-overlay-1" filterUnits="userSpaceOnUse">
      <feFlood flood-color="#ea5514"/>
      <feComposite operator="in" in2="SourceGraphic"/>
      <feBlend in2="SourceGraphic" result="solidFill"/>
    </filter>
  </defs>
  <g class="cls-1">
    <path d="M35.000,30.000 C35.000,32.209 33.209,34.000 31.000,34.000 L27.000,34.000 L20.000,34.000 L7.000,34.000 C4.791,34.000 3.000,32.209 3.000,30.000 L3.000,23.000 C3.000,22.438 3.145,21.920 3.355,21.435 C3.144,21.177 3.000,20.860 3.000,20.500 C3.000,19.672 3.672,19.000 4.500,19.000 C5.328,19.000 6.000,19.672 6.000,20.500 C6.000,20.677 5.956,20.842 5.899,21.000 L6.000,21.000 L6.000,29.000 C6.000,30.105 6.895,31.000 8.000,31.000 L18.000,31.000 L18.000,23.000 C18.000,21.895 18.895,21.000 20.000,21.000 L27.000,21.000 C28.105,21.000 29.000,21.895 29.000,23.000 L29.000,31.000 L30.000,31.000 C31.105,31.000 32.000,30.105 32.000,29.000 L32.000,21.000 L32.101,21.000 C32.044,20.842 32.000,20.677 32.000,20.500 C32.000,19.672 32.672,19.000 33.500,19.000 C34.328,19.000 35.000,19.672 35.000,20.500 C35.000,20.860 34.856,21.177 34.645,21.435 C34.855,21.920 35.000,22.438 35.000,23.000 L35.000,30.000 ZM27.000,23.999 C27.000,23.447 26.552,22.999 26.000,22.999 L21.000,22.999 C20.448,22.999 20.000,23.447 20.000,23.999 L20.000,30.999 L27.000,30.999 L27.000,23.999 ZM33.000,8.000 L31.000,8.000 C30.448,8.000 30.000,7.552 30.000,7.000 C30.000,6.448 30.448,6.000 31.000,6.000 C31.552,6.000 32.000,5.552 32.000,5.000 L32.000,4.000 C32.000,3.448 31.552,3.000 31.000,3.000 L7.000,3.000 C6.448,3.000 6.000,3.448 6.000,4.000 L6.000,5.000 C6.000,5.552 6.448,6.000 7.000,6.000 L25.000,6.000 C25.552,6.000 26.000,6.448 26.000,7.000 C26.000,7.552 25.552,8.000 25.000,8.000 L5.000,8.000 C3.895,8.000 3.000,7.105 3.000,6.000 L3.000,2.000 C3.000,0.895 3.895,0.000 5.000,0.000 L33.000,0.000 C34.105,0.000 35.000,0.895 35.000,2.000 L35.000,6.000 C35.000,7.105 34.105,8.000 33.000,8.000 Z" class="cls-2"/>
    <path d="M12.500,30.000 C12.224,30.000 12.000,29.776 12.000,29.500 C12.000,29.224 12.224,29.000 12.500,29.000 C12.776,29.000 13.000,29.224 13.000,29.500 C13.000,29.776 12.776,30.000 12.500,30.000 ZM10.000,30.000 L8.000,30.000 C7.448,30.000 7.000,29.552 7.000,29.000 L7.000,23.000 C7.000,22.448 7.448,22.000 8.000,22.000 L8.000,28.000 C8.000,28.552 8.448,29.000 9.000,29.000 L11.000,29.000 C11.000,29.552 10.552,30.000 10.000,30.000 Z" class="cls-2"/>
    <path d="M38.000,12.500 C38.000,15.538 35.538,18.000 32.500,18.000 C30.638,18.000 28.995,17.072 28.000,15.656 C27.005,17.072 25.362,18.000 23.500,18.000 C21.638,18.000 19.995,17.072 19.000,15.656 C18.005,17.072 16.362,18.000 14.500,18.000 C12.638,18.000 10.995,17.072 10.000,15.656 C9.005,17.072 7.362,18.000 5.500,18.000 C2.462,18.000 -0.000,15.538 -0.000,12.500 C-0.000,12.331 0.010,12.165 0.025,12.000 L0.211,12.000 C0.169,11.870 0.176,11.725 0.250,11.598 L3.250,6.401 C3.388,6.162 3.694,6.080 3.933,6.218 L4.799,6.718 C5.038,6.857 5.120,7.162 4.982,7.401 L2.006,12.556 C2.036,14.463 3.586,16.000 5.500,16.000 C7.433,16.000 9.000,14.433 9.000,12.500 C9.000,12.329 8.973,12.165 8.950,12.000 L11.050,12.000 C11.027,12.165 11.000,12.329 11.000,12.500 C11.000,14.433 12.567,16.000 14.500,16.000 C16.433,16.000 18.000,14.433 18.000,12.500 C18.000,12.329 17.973,12.165 17.950,12.000 L20.050,12.000 C20.027,12.165 20.000,12.329 20.000,12.500 C20.000,14.433 21.567,16.000 23.500,16.000 C25.433,16.000 27.000,14.433 27.000,12.500 C27.000,12.329 26.973,12.165 26.950,12.000 L29.050,12.000 C29.027,12.165 29.000,12.329 29.000,12.500 C29.000,14.433 30.567,16.000 32.500,16.000 C34.433,16.000 36.000,14.433 36.000,12.500 C36.000,12.473 35.993,12.448 35.992,12.421 L33.138,7.352 C33.000,7.107 33.082,6.794 33.320,6.652 L34.185,6.141 C34.424,6.000 34.729,6.084 34.867,6.328 L37.862,11.647 C37.925,11.758 37.937,11.883 37.914,12.000 L37.975,12.000 C37.990,12.165 38.000,12.331 38.000,12.500 Z" class="cls-2"/>
  </g>
</svg>
