<svg xmlns="http://www.w3.org/2000/svg" xmlns:xlink="http://www.w3.org/1999/xlink" preserveAspectRatio="xMidYMid" width="30.75" height="30.75" viewBox="0 0 30.75 30.75">
  <defs>
    <style>
      .cls-1 {
        fill: #fff;
        fill-rule: evenodd;
      }
    </style>
  </defs>
  <path d="M26.913,19.215 L12.477,19.215 C10.370,19.215 8.655,17.492 8.655,15.375 C8.655,13.258 10.370,11.535 12.477,11.535 L26.913,11.535 C29.020,11.535 30.735,13.258 30.735,15.375 C30.735,17.492 29.020,19.215 26.913,19.215 ZM26.913,13.455 L12.477,13.455 C11.426,13.455 10.575,14.315 10.575,15.375 C10.575,16.435 11.426,17.295 12.477,17.295 L26.913,17.295 C27.964,17.295 28.815,16.435 28.815,15.375 C28.815,14.315 27.964,13.455 26.913,13.455 ZM26.913,7.695 L12.477,7.695 C10.370,7.695 8.655,5.972 8.655,3.855 C8.655,1.737 10.370,0.015 12.477,0.015 L26.913,0.015 C29.020,0.015 30.735,1.737 30.735,3.855 C30.735,5.972 29.020,7.695 26.913,7.695 ZM26.913,1.935 L12.477,1.935 C11.426,1.935 10.575,2.794 10.575,3.855 C10.575,4.915 11.426,5.775 12.477,5.775 L26.913,5.775 C27.964,5.775 28.815,4.915 28.815,3.855 C28.815,2.794 27.964,1.935 26.913,1.935 ZM21.170,3.855 L16.370,3.855 C16.105,3.855 15.890,3.640 15.890,3.375 C15.890,3.109 16.105,2.895 16.370,2.895 L21.170,2.895 C21.435,2.895 21.650,3.109 21.650,3.375 C21.650,3.640 21.435,3.855 21.170,3.855 ZM13.970,3.855 L12.530,3.855 C12.265,3.855 12.050,3.640 12.050,3.375 C12.050,3.109 12.265,2.895 12.530,2.895 L13.970,2.895 C14.235,2.895 14.450,3.109 14.450,3.375 C14.450,3.640 14.235,3.855 13.970,3.855 ZM3.873,30.735 L3.837,30.735 C1.730,30.735 0.015,29.012 0.015,26.895 C0.015,24.778 1.730,23.055 3.837,23.055 L3.873,23.055 C5.980,23.055 7.695,24.778 7.695,26.895 C7.695,29.012 5.980,30.735 3.873,30.735 ZM3.873,24.975 L3.837,24.975 C2.786,24.975 1.935,25.834 1.935,26.895 C1.935,27.955 2.786,28.815 3.837,28.815 L3.873,28.815 C4.924,28.815 5.775,27.955 5.775,26.895 C5.775,25.834 4.924,24.975 3.873,24.975 ZM3.873,19.215 L3.837,19.215 C1.730,19.215 0.015,17.492 0.015,15.375 C0.015,13.258 1.730,11.535 3.837,11.535 L3.873,11.535 C5.980,11.535 7.695,13.258 7.695,15.375 C7.695,17.492 5.980,19.215 3.873,19.215 ZM3.873,13.455 L3.837,13.455 C2.786,13.455 1.935,14.315 1.935,15.375 C1.935,16.435 2.786,17.295 3.837,17.295 L3.873,17.295 C4.924,17.295 5.775,16.435 5.775,15.375 C5.775,14.315 4.924,13.455 3.873,13.455 ZM3.873,7.695 L3.837,7.695 C1.730,7.695 0.015,5.972 0.015,3.855 C0.015,1.737 1.730,0.015 3.837,0.015 L3.873,0.015 C5.980,0.015 7.695,1.737 7.695,3.855 C7.695,5.972 5.980,7.695 3.873,7.695 ZM3.873,1.935 L3.837,1.935 C2.786,1.935 1.935,2.794 1.935,3.855 C1.935,4.915 2.786,5.775 3.837,5.775 L3.873,5.775 C4.924,5.775 5.775,4.915 5.775,3.855 C5.775,2.794 4.924,1.935 3.873,1.935 ZM12.477,23.055 L26.913,23.055 C29.020,23.055 30.735,24.778 30.735,26.895 C30.735,29.012 29.020,30.735 26.913,30.735 L12.477,30.735 C10.370,30.735 8.655,29.012 8.655,26.895 C8.655,24.778 10.370,23.055 12.477,23.055 ZM12.477,28.815 L26.913,28.815 C27.964,28.815 28.815,27.955 28.815,26.895 C28.815,25.834 27.964,24.975 26.913,24.975 L12.477,24.975 C11.426,24.975 10.575,25.834 10.575,26.895 C10.575,27.955 11.426,28.815 12.477,28.815 Z" class="cls-1"/>
</svg>
