<svg xmlns="http://www.w3.org/2000/svg" xmlns:xlink="http://www.w3.org/1999/xlink" preserveAspectRatio="xMidYMid" width="26" height="22.25" viewBox="0 0 26 22.25">
  <defs>
    <style>
      .cls-1 {
        fill: #ff2121;
        fill-rule: evenodd;
      }
    </style>
  </defs>
  <path d="M22.434,20.616 C22.180,20.873 21.765,20.875 21.508,20.620 C21.251,20.366 21.249,19.951 21.503,19.693 C23.532,17.642 24.690,14.881 24.690,11.935 C24.690,8.973 23.519,6.198 21.471,4.145 C21.215,3.888 21.216,3.473 21.472,3.217 C21.728,2.962 22.143,2.962 22.398,3.218 C24.689,5.515 26.000,8.622 26.000,11.935 C26.000,15.230 24.703,18.322 22.434,20.616 ZM17.180,17.135 C16.923,16.880 16.921,16.465 17.175,16.208 C18.295,15.076 18.933,13.554 18.933,11.928 C18.933,10.293 18.288,8.763 17.158,7.630 C16.902,7.374 16.902,6.959 17.159,6.703 C17.415,6.447 17.829,6.448 18.085,6.704 C19.458,8.080 20.244,9.943 20.244,11.928 C20.244,13.902 19.466,15.756 18.106,17.130 C17.852,17.387 17.437,17.390 17.180,17.135 ZM15.984,22.161 C15.931,22.134 15.931,22.134 15.689,22.013 C15.452,21.896 15.185,21.763 14.893,21.618 C14.569,21.457 14.437,21.063 14.597,20.739 C14.758,20.415 15.151,20.282 15.476,20.443 C15.529,20.470 15.570,20.490 15.621,20.516 L15.621,1.753 C15.483,1.825 15.362,1.889 15.214,1.966 C14.185,2.504 13.148,3.042 12.170,3.544 C12.078,3.591 12.078,3.591 11.986,3.639 C8.823,5.261 7.492,5.909 7.117,5.909 L2.317,5.909 C1.789,5.909 1.310,6.482 1.310,7.240 L1.310,15.184 C1.310,15.942 1.789,16.514 2.317,16.514 L7.117,16.514 C7.407,16.514 8.202,16.883 10.737,18.113 C11.063,18.270 11.199,18.663 11.041,18.989 C10.883,19.314 10.491,19.450 10.166,19.292 C9.233,18.840 8.471,18.476 7.912,18.217 C7.608,18.076 7.367,17.967 7.196,17.895 C7.121,17.863 7.067,17.841 7.024,17.825 L2.317,17.825 C1.009,17.825 -0.000,16.619 -0.000,15.184 L-0.000,7.240 C-0.000,5.804 1.009,4.598 2.317,4.598 L7.117,4.598 C7.037,4.598 7.051,4.594 7.060,4.590 C7.130,4.564 7.230,4.523 7.356,4.467 C7.608,4.356 7.954,4.193 8.386,3.983 C9.156,3.608 10.177,3.093 11.388,2.472 C11.480,2.425 11.480,2.425 11.572,2.378 C12.547,1.877 13.581,1.340 14.607,0.804 C14.967,0.616 15.300,0.441 15.597,0.285 C15.776,0.191 15.903,0.124 15.971,0.088 C16.407,-0.142 16.932,0.175 16.932,0.668 L16.932,21.574 C16.932,22.061 16.419,22.378 15.984,22.161 ZM12.817,18.933 C13.291,18.933 13.675,19.318 13.675,19.793 C13.675,20.268 13.291,20.653 12.817,20.653 C12.343,20.653 11.959,20.268 11.959,19.793 C11.959,19.318 12.343,18.933 12.817,18.933 Z" class="cls-1"/>
</svg>
