<svg xmlns="http://www.w3.org/2000/svg" xmlns:xlink="http://www.w3.org/1999/xlink" preserveAspectRatio="xMidYMid" width="19" height="37" viewBox="0 0 19 37">
  <defs>
    <style>
      .cls-1 {
        fill: #666;
        filter: url(#color-overlay-1);
        fill-rule: evenodd;
      }
    </style>

    <filter id="color-overlay-1" filterUnits="userSpaceOnUse">
      <feFlood flood-color="gray"/>
      <feComposite operator="in" in2="SourceGraphic"/>
      <feBlend mode="luminosity" in2="SourceGraphic" result="solidFill"/>
    </filter>
  </defs>
  <path d="M17.930,2.930 L18.000,2.999 L5.495,15.629 C5.496,15.630 5.498,15.632 5.500,15.633 C4.595,16.266 4.000,17.312 4.000,18.500 C4.000,19.688 4.595,20.734 5.500,21.367 C5.498,21.368 5.496,21.371 5.493,21.372 L15.180,31.170 C15.465,31.316 15.696,31.549 15.839,31.837 L16.000,31.999 L15.930,32.070 C15.971,32.207 16.000,32.349 16.000,32.500 C16.000,33.328 15.328,34.000 14.500,34.000 C14.349,34.000 14.207,33.971 14.070,33.930 L14.000,33.999 L13.839,33.840 C13.549,33.697 13.316,33.465 13.169,33.178 L1.000,21.147 L1.105,21.041 C0.428,20.403 -0.000,19.504 -0.000,18.500 C-0.000,17.496 0.429,16.596 1.106,15.958 L1.000,15.852 L16.000,0.999 L16.070,1.070 C16.256,0.452 16.822,-0.000 17.500,-0.000 C18.328,-0.000 19.000,0.671 19.000,1.500 C19.000,2.178 18.547,2.744 17.930,2.930 ZM17.500,34.000 C18.328,34.000 19.000,34.671 19.000,35.500 C19.000,36.328 18.328,37.000 17.500,37.000 C16.672,37.000 16.000,36.328 16.000,35.500 C16.000,34.671 16.672,34.000 17.500,34.000 Z" class="cls-1"/>
</svg>
