<svg xmlns="http://www.w3.org/2000/svg" xmlns:xlink="http://www.w3.org/1999/xlink" preserveAspectRatio="xMidYMid" width="33.5" height="29" viewBox="0 0 33.5 29">
  <defs>
    <style>
      .cls-1 {
        fill: #e60012;
        fill-rule: evenodd;
      }
    </style>
  </defs>
  <path d="M33.500,9.150 C33.500,9.150 33.498,9.337 33.465,9.665 C33.412,10.348 33.291,11.009 33.096,11.636 C32.288,14.741 29.861,20.239 22.556,25.143 C18.200,28.083 17.091,28.910 16.792,28.982 C16.776,28.986 16.768,29.000 16.751,29.000 C16.736,29.000 16.729,28.988 16.715,28.986 C16.433,28.931 15.360,28.125 10.940,25.143 C3.294,20.013 0.994,14.231 0.300,11.222 C0.177,10.751 0.086,10.262 0.039,9.763 C-0.004,9.369 -0.004,9.150 -0.004,9.150 L0.009,9.144 C0.009,9.082 0.001,9.026 0.001,8.961 C0.001,4.014 3.996,-0.000 8.926,-0.000 C11.788,-0.000 14.335,1.362 15.966,3.475 C15.971,3.475 15.981,3.472 15.981,3.472 C16.158,3.712 16.430,3.879 16.748,3.879 C17.061,3.879 17.329,3.723 17.508,3.492 C17.511,3.494 17.513,3.494 17.519,3.496 C19.150,1.372 21.701,-0.000 24.577,-0.000 C29.502,-0.000 33.500,4.014 33.500,8.961 C33.500,9.027 33.493,9.086 33.490,9.149 L33.500,9.150 Z" class="cls-1"/>
</svg>
