<svg xmlns="http://www.w3.org/2000/svg" xmlns:xlink="http://www.w3.org/1999/xlink" preserveAspectRatio="xMidYMid" width="32.125" height="28.12" viewBox="0 0 32.125 28.12">
  <defs>
    <style>
      .cls-1 {
        stroke: #999;
        stroke-width: 2px;
        fill: none;
        fill-rule: evenodd;
      }
    </style>
  </defs>
  <path d="M31.138,9.245 C31.138,9.245 31.136,9.413 31.106,9.709 C31.058,10.323 30.950,10.918 30.774,11.483 C30.047,14.276 27.863,19.225 21.288,23.639 C17.368,26.284 16.370,27.029 16.100,27.094 C16.086,27.098 16.079,27.110 16.063,27.110 C16.050,27.110 16.043,27.099 16.031,27.098 C15.777,27.048 14.811,26.322 10.833,23.639 C3.952,19.022 1.882,13.818 1.257,11.109 C1.147,10.686 1.065,10.246 1.023,9.797 C0.984,9.442 0.984,9.245 0.984,9.245 L0.996,9.240 C0.996,9.184 0.989,9.133 0.989,9.075 C0.989,4.622 4.584,1.010 9.021,1.010 C11.597,1.010 13.889,2.236 15.356,4.138 C15.361,4.138 15.370,4.135 15.370,4.135 C15.530,4.351 15.775,4.501 16.061,4.501 C16.343,4.501 16.584,4.361 16.745,4.153 C16.747,4.154 16.749,4.154 16.755,4.157 C18.222,2.244 20.518,1.010 23.107,1.010 C27.540,1.010 31.138,4.622 31.138,9.075 C31.138,9.135 31.131,9.187 31.129,9.244 L31.138,9.245 Z" class="cls-1"/>
</svg>
