<svg xmlns="http://www.w3.org/2000/svg" xmlns:xlink="http://www.w3.org/1999/xlink" preserveAspectRatio="xMidYMid" width="23.781" height="30.343" viewBox="0 0 23.781 30.343">
  <defs>
    <style>
      .cls-1 {
        fill: #ea5514;
        fill-rule: evenodd;
      }
    </style>
  </defs>
  <path d="M11.892,-0.012 C5.328,-0.012 0.010,5.361 0.010,11.991 C0.010,14.079 0.539,16.046 1.472,17.757 C4.434,23.832 11.813,30.304 11.813,30.304 L11.908,30.345 L12.006,30.304 C12.006,30.304 20.204,23.111 22.786,16.773 C22.826,16.682 22.862,16.588 22.902,16.493 C22.924,16.433 22.944,16.373 22.967,16.312 C23.481,14.971 23.773,13.514 23.773,11.991 C23.773,5.361 18.455,-0.012 11.892,-0.012 ZM11.892,16.203 C9.588,16.203 7.720,14.318 7.720,11.991 C7.720,9.663 9.588,7.777 11.892,7.777 C14.194,7.777 16.064,9.663 16.064,11.991 C16.064,14.318 14.194,16.203 11.892,16.203 Z" class="cls-1"/>
</svg>
