<svg xmlns="http://www.w3.org/2000/svg" xmlns:xlink="http://www.w3.org/1999/xlink" preserveAspectRatio="xMidYMid" width="39" height="48" viewBox="0 0 39 48">
  <defs>
    <style>
      .cls-1 {
        filter: url(#drop-shadow-1);
      }

      .cls-2 {
        fill: #fff;
        fill-rule: evenodd;
      }
    </style>

    <filter id="drop-shadow-1" filterUnits="userSpaceOnUse">
      <feOffset dy="2" in="SourceAlpha"/>
      <feGaussianBlur stdDeviation="2.236" result="dropBlur"/>
      <feFlood flood-color="#d98a00" flood-opacity="0.75"/>
      <feComposite operator="in" in2="dropBlur" result="dropShadowComp"/>
      <feComposite in="SourceGraphic" result="shadowed"/>
    </filter>
  </defs>
  <g class="cls-1">
    <path d="M25.899,16.999 L26.000,16.999 L16.935,33.481 C16.719,34.352 15.938,35.000 15.000,35.000 C14.062,35.000 13.282,34.352 13.065,33.482 L4.000,16.999 L4.101,16.999 C3.401,15.476 3.000,13.787 3.000,12.000 C3.000,5.373 8.373,-0.000 15.000,-0.000 C21.627,-0.000 27.000,5.373 27.000,12.000 C27.000,13.787 26.599,15.476 25.899,16.999 ZM15.000,3.000 C10.029,3.000 6.000,7.029 6.000,12.000 C6.000,13.892 6.587,15.646 7.584,17.095 L15.000,30.999 L22.415,17.096 C23.413,15.647 24.000,13.893 24.000,12.000 C24.000,7.029 19.971,3.000 15.000,3.000 ZM15.000,17.000 C12.239,17.000 10.000,14.761 10.000,12.000 C10.000,9.239 12.239,7.000 15.000,7.000 C17.761,7.000 20.000,9.239 20.000,12.000 C20.000,14.761 17.761,17.000 15.000,17.000 ZM15.000,9.000 C13.343,9.000 12.000,10.343 12.000,12.000 C12.000,13.657 13.343,15.000 15.000,15.000 C16.657,15.000 18.000,13.657 18.000,12.000 C18.000,10.343 16.657,9.000 15.000,9.000 ZM14.447,24.776 L13.553,25.223 L10.553,19.223 L11.447,18.776 L14.447,24.776 ZM14.500,26.000 C14.776,26.000 15.000,26.224 15.000,26.500 C15.000,26.776 14.776,27.000 14.500,27.000 C14.224,27.000 14.000,26.776 14.000,26.500 C14.000,26.224 14.224,26.000 14.500,26.000 Z" class="cls-2"/>
    <path d="M15.000,39.000 C6.716,39.000 -0.000,37.209 -0.000,35.000 C-0.000,33.541 2.951,32.273 7.328,31.574 C7.603,31.227 8.023,31.000 8.500,31.000 C9.328,31.000 10.000,31.672 10.000,32.500 C10.000,33.328 9.328,34.000 8.500,34.000 C8.324,34.000 8.157,33.964 8.000,33.908 L8.000,34.000 L8.500,34.000 L15.000,34.000 C8.373,34.000 3.000,34.448 3.000,35.000 C3.000,35.552 8.373,36.000 15.000,36.000 C21.627,36.000 27.000,35.552 27.000,35.000 C27.000,34.448 21.627,34.000 15.000,34.000 L21.500,34.000 L22.000,34.000 L22.000,33.908 C21.843,33.964 21.676,34.000 21.500,34.000 C20.672,34.000 20.000,33.328 20.000,32.500 C20.000,31.672 20.672,31.000 21.500,31.000 C21.977,31.000 22.397,31.227 22.672,31.574 C27.049,32.273 30.000,33.541 30.000,35.000 C30.000,37.209 23.284,39.000 15.000,39.000 Z" class="cls-2"/>
  </g>
</svg>
