<svg xmlns="http://www.w3.org/2000/svg" xmlns:xlink="http://www.w3.org/1999/xlink" preserveAspectRatio="xMidYMid" width="21.125" height="30.25" viewBox="0 0 21.125 30.25">
  <defs>
    <style>
      .cls-1 {
        fill: #fff;
        fill-rule: evenodd;
      }
    </style>
  </defs>
  <path d="M12.035,29.547 C11.685,29.972 11.170,30.227 10.620,30.245 C10.599,30.246 10.578,30.246 10.557,30.246 C10.030,30.246 9.525,30.028 9.163,29.644 C8.789,29.245 -0.005,19.779 -0.005,10.571 C-0.005,4.744 4.733,0.003 10.557,0.003 C16.381,0.003 21.118,4.744 21.118,10.571 C21.118,18.394 12.405,29.095 12.035,29.547 ZM10.557,1.917 C5.780,1.917 1.908,5.791 1.908,10.571 C1.908,19.127 10.557,28.332 10.557,28.332 C10.557,28.332 19.206,17.798 19.206,10.571 C19.206,5.791 15.334,1.917 10.557,1.917 ZM11.513,24.773 C11.406,24.773 11.298,24.737 11.209,24.664 C11.005,24.496 10.976,24.195 11.143,23.991 C11.161,23.970 12.908,21.831 14.360,19.227 C14.488,18.996 14.780,18.915 15.010,19.043 C15.241,19.171 15.323,19.463 15.195,19.693 C13.700,22.375 11.956,24.508 11.883,24.598 C11.788,24.713 11.651,24.773 11.513,24.773 ZM10.557,14.012 C8.584,14.012 6.979,12.406 6.979,10.432 C6.979,8.458 8.584,6.852 10.557,6.852 C12.530,6.852 14.135,8.458 14.135,10.432 C14.135,12.406 12.530,14.012 10.557,14.012 ZM10.557,7.809 C9.111,7.809 7.935,8.985 7.935,10.432 C7.935,11.879 9.111,13.055 10.557,13.055 C12.002,13.055 13.178,11.879 13.178,10.432 C13.178,8.985 12.002,7.809 10.557,7.809 ZM10.557,4.262 C10.249,4.262 9.939,4.285 9.634,4.330 C9.611,4.333 9.587,4.335 9.563,4.335 C9.330,4.335 9.126,4.164 9.091,3.927 C9.052,3.665 9.233,3.422 9.494,3.383 C9.845,3.331 10.202,3.305 10.557,3.305 C10.821,3.305 11.035,3.519 11.035,3.783 C11.035,4.048 10.821,4.262 10.557,4.262 ZM7.155,5.285 C5.424,6.432 4.390,8.357 4.390,10.432 C4.390,10.697 4.176,10.911 3.912,10.911 C3.648,10.911 3.434,10.697 3.434,10.432 C3.434,8.035 4.627,5.813 6.627,4.487 C6.847,4.341 7.143,4.401 7.289,4.622 C7.435,4.842 7.375,5.138 7.155,5.285 Z" class="cls-1"/>
</svg>
