<svg xmlns="http://www.w3.org/2000/svg" xmlns:xlink="http://www.w3.org/1999/xlink" preserveAspectRatio="xMidYMid" width="38" height="41" viewBox="0 0 38 41">
  <defs>
    <style>
      .cls-1, .cls-2, .cls-3, .cls-4 {
        stroke: #666;
        fill: none;
      }

      .cls-1 {
        stroke-width: 3px;
      }

      .cls-1, .cls-3 {
        fill-rule: evenodd;
      }

      .cls-2 {
        stroke-width: 2px;
      }

      .cls-3, .cls-4 {
        stroke-width: 1px;
      }
    </style>
  </defs>
  <g>
    <g>
      <g>
        <path d="M36.476,36.618 L36.500,36.642 C36.500,36.718 36.470,36.790 36.427,36.859 C36.282,37.233 35.925,37.499 35.500,37.499 C35.397,37.499 35.304,37.470 35.211,37.441 C34.989,37.477 34.751,37.499 34.500,37.499 L3.500,37.499 C3.249,37.499 3.011,37.477 2.789,37.441 C2.696,37.470 2.602,37.499 2.500,37.499 C2.075,37.499 1.718,37.233 1.573,36.859 C1.530,36.790 1.500,36.718 1.500,36.642 L1.524,36.618 C1.519,36.577 1.500,36.542 1.500,36.500 C1.500,35.947 1.948,35.500 2.500,35.500 C2.537,35.500 2.569,35.517 2.605,35.521 L6.735,31.331 C7.040,31.127 7.592,30.054 7.500,29.802 L7.500,15.000 C7.500,9.200 12.701,4.500 18.500,4.500 C24.299,4.500 29.500,9.200 29.500,15.000 L29.500,29.679 C30.193,29.872 30.940,31.174 31.265,31.331 L35.394,35.521 C35.431,35.517 35.463,35.500 35.500,35.500 C36.052,35.500 36.500,35.947 36.500,36.500 C36.500,36.542 36.481,36.577 36.476,36.618 Z" class="cls-1"/>
        <circle cx="18.5" cy="4" r="3" class="cls-2"/>
        <ellipse cx="18.5" cy="37.5" rx="7" ry="2.5" class="cls-2"/>
      </g>
      <path d="M18.235,8.499 C21.305,8.499 23.500,10.512 23.500,13.500 " class="cls-3"/>
    </g>
    <rect x="23.5" y="15" width="1" height="1" class="cls-4"/>
  </g>
</svg>
