<svg xmlns="http://www.w3.org/2000/svg" xmlns:xlink="http://www.w3.org/1999/xlink" preserveAspectRatio="xMidYMid" width="32" height="32" viewBox="0 0 32 32">
  <defs>
    <style>
      .cls-1 {
        fill: #ea5514;
        filter: url(#color-overlay-1);
        fill-rule: evenodd;
      }
    </style>

    <filter id="color-overlay-1" filterUnits="userSpaceOnUse">
      <feFlood flood-color="#ea5514"/>
      <feComposite operator="in" in2="SourceGraphic"/>
      <feBlend in2="SourceGraphic" result="solidFill"/>
    </filter>
  </defs>
  <path d="M5.000,25.500 C5.000,25.776 4.776,26.000 4.500,26.000 C4.224,26.000 4.000,25.776 4.000,25.500 C4.000,25.223 4.224,25.000 4.500,25.000 C4.776,25.000 5.000,25.223 5.000,25.500 ZM4.000,17.000 C4.000,15.895 4.895,15.000 6.000,15.000 L8.000,15.000 L8.000,15.500 L8.000,15.999 L7.000,15.999 C5.895,15.999 5.000,16.895 5.000,17.999 L5.000,23.000 L4.500,23.000 L4.000,23.000 L4.000,17.000 ZM8.500,15.000 C8.776,15.000 9.000,15.223 9.000,15.500 C9.000,15.776 8.776,15.999 8.500,15.999 C8.224,15.999 8.000,15.776 8.000,15.500 C8.000,15.223 8.224,15.000 8.500,15.000 ZM5.000,23.500 C5.000,23.775 4.776,24.000 4.500,24.000 C4.224,24.000 4.000,23.775 4.000,23.500 C4.000,23.224 4.224,23.000 4.500,23.000 C4.776,23.000 5.000,23.224 5.000,23.500 ZM32.000,30.000 C32.000,31.104 31.104,32.000 30.000,32.000 L2.000,32.000 C0.895,32.000 -0.000,31.104 -0.000,30.000 L-0.000,12.999 C-0.000,11.895 0.895,11.000 2.000,11.000 L7.231,11.000 L10.367,11.000 L21.633,11.000 L24.769,11.000 L29.000,11.000 L30.000,11.000 C31.104,11.000 32.000,11.895 32.000,12.999 L32.000,21.000 L31.899,21.000 C31.955,21.157 32.000,21.322 32.000,21.500 C32.000,22.328 31.328,23.000 30.500,23.000 C29.671,23.000 29.000,22.328 29.000,21.500 C29.000,21.322 29.044,21.157 29.101,21.000 L29.000,21.000 L29.000,15.000 C29.000,14.447 28.552,14.000 28.000,14.000 L4.000,14.000 C3.448,14.000 3.000,14.447 3.000,15.000 L3.000,28.000 C3.000,28.552 3.448,28.999 4.000,28.999 L13.000,28.999 L13.000,25.977 C11.792,25.064 11.000,23.630 11.000,22.000 C11.000,19.238 13.238,17.000 16.000,17.000 C18.761,17.000 21.000,19.238 21.000,22.000 C21.000,23.630 20.208,25.064 19.000,25.977 L19.000,28.999 L28.000,28.999 C28.552,28.999 29.000,28.552 29.000,28.000 L29.000,27.000 L29.101,27.000 C29.044,26.842 29.000,26.677 29.000,26.500 C29.000,25.671 29.671,25.000 30.500,25.000 C31.328,25.000 32.000,25.671 32.000,26.500 C32.000,26.677 31.955,26.842 31.899,27.000 L32.000,27.000 L32.000,30.000 ZM16.000,19.999 C14.895,19.999 14.000,20.895 14.000,22.000 C14.000,22.738 14.405,23.376 15.000,23.722 L15.000,28.999 L17.000,28.999 L17.000,23.722 C17.595,23.376 18.000,22.738 18.000,22.000 C18.000,20.895 17.104,19.999 16.000,19.999 ZM21.903,9.999 C21.963,9.675 22.000,9.342 22.000,9.000 C22.000,5.686 19.314,3.000 16.000,3.000 C12.686,3.000 10.000,5.686 10.000,9.000 C10.000,9.342 10.036,9.675 10.097,9.999 L7.059,9.999 C7.021,9.671 7.000,9.338 7.000,9.000 C7.000,4.029 11.029,-0.000 16.000,-0.000 C20.970,-0.000 25.000,4.029 25.000,9.000 C25.000,9.338 24.979,9.671 24.940,9.999 L21.903,9.999 Z" class="cls-1"/>
</svg>
