<svg xmlns="http://www.w3.org/2000/svg" xmlns:xlink="http://www.w3.org/1999/xlink" preserveAspectRatio="xMidYMid" width="32" height="42.406" viewBox="0 0 32 42.406">
  <defs>
    <style>
      .cls-1, .cls-2 {
        fill: #ea5514;
      }

      .cls-1 {
        fill-rule: evenodd;
      }
    </style>
  </defs>
  <g>
    <path d="M24.787,26.006 C24.787,27.558 24.490,29.037 23.969,30.406 L23.907,30.406 C23.741,30.870 23.308,31.206 22.787,31.206 C22.266,31.206 21.834,30.870 21.668,30.406 L21.357,30.406 C21.464,30.189 21.550,29.962 21.642,29.738 C21.674,29.602 21.724,29.480 21.798,29.367 C22.176,28.317 22.387,27.187 22.387,26.006 C22.387,20.483 17.910,16.006 12.387,16.006 C6.865,16.006 2.387,20.483 2.387,26.006 C2.387,27.187 2.599,28.317 2.977,29.367 C3.051,29.480 3.101,29.602 3.133,29.737 C3.225,29.962 3.311,30.189 3.418,30.406 L3.107,30.406 C2.941,30.870 2.508,31.206 1.987,31.206 C1.467,31.206 1.034,30.870 0.868,30.406 L0.806,30.406 C0.285,29.037 -0.013,27.558 -0.013,26.006 C-0.013,20.475 3.611,15.794 8.612,14.196 C6.329,12.885 4.787,10.428 4.787,7.606 C4.787,3.409 8.190,0.006 12.387,0.006 C16.585,0.006 19.987,3.409 19.987,7.606 C19.987,10.428 18.446,12.885 16.163,14.196 C21.164,15.794 24.787,20.475 24.787,26.006 ZM17.587,7.606 C17.587,4.734 15.259,2.406 12.387,2.406 C9.516,2.406 7.187,4.734 7.187,7.606 C7.187,10.478 9.516,12.806 12.387,12.806 C15.259,12.806 17.587,10.478 17.587,7.606 ZM4.387,24.806 C4.608,24.806 4.787,24.985 4.787,25.206 C4.787,25.427 4.608,25.606 4.387,25.606 C4.167,25.606 3.987,25.427 3.987,25.206 C3.987,24.985 4.167,24.806 4.387,24.806 ZM11.187,17.702 L11.187,18.510 C8.184,18.988 5.772,21.220 5.031,24.128 L4.300,23.762 C5.179,20.590 7.867,18.178 11.187,17.702 Z" class="cls-1"/>
    <path d="M31.987,26.406 C31.987,27.307 31.895,28.183 31.752,29.043 C31.897,29.190 31.987,29.394 31.987,29.619 C31.987,30.067 31.629,30.431 31.188,30.431 C30.746,30.431 30.387,30.067 30.387,29.619 C30.387,29.614 30.390,29.610 30.390,29.606 L30.387,29.606 L30.387,29.619 L30.387,30.406 L26.510,30.406 C26.468,30.413 26.431,30.431 26.387,30.431 C25.946,30.431 25.587,30.067 25.587,29.619 C25.587,29.170 25.946,28.806 26.387,28.806 L29.341,28.806 C29.485,28.025 29.587,27.229 29.587,26.406 C29.587,20.895 26.301,16.167 21.587,14.032 L21.587,12.006 L22.387,12.006 L22.387,11.796 C22.572,11.876 22.769,11.930 22.950,12.017 C25.030,11.419 26.562,9.514 26.562,7.231 C26.562,4.526 24.421,2.336 21.750,2.248 C21.580,2.340 21.395,2.406 21.188,2.406 C20.525,2.406 19.987,1.869 19.987,1.206 C19.987,0.685 20.324,0.253 20.787,0.087 L20.787,0.053 C20.865,0.045 20.945,0.046 21.024,0.039 C21.080,0.031 21.129,0.006 21.188,0.006 C21.219,0.006 21.246,0.022 21.278,0.024 C21.381,0.019 21.483,0.006 21.587,0.006 C25.564,0.006 28.787,3.230 28.787,7.206 C28.787,9.837 27.372,12.131 25.266,13.387 C29.329,16.289 31.987,21.032 31.987,26.406 ZM15.980,42.406 L15.995,42.406 C15.992,42.406 15.990,42.406 15.987,42.406 C15.985,42.406 15.982,42.406 15.980,42.406 Z" class="cls-1"/>
    <circle cx="21.984" cy="13.203" r="1.203" class="cls-2"/>
  </g>
</svg>
