<svg xmlns="http://www.w3.org/2000/svg" xmlns:xlink="http://www.w3.org/1999/xlink" preserveAspectRatio="xMidYMid" width="24" height="36" viewBox="0 0 24 36">
  <defs>
    <style>
      .cls-1 {
        fill: #ea5514;
        filter: url(#color-overlay-1);
        fill-rule: evenodd;
      }
    </style>

    <filter id="color-overlay-1" filterUnits="userSpaceOnUse">
      <feFlood flood-color="#ea5514"/>
      <feComposite operator="in" in2="SourceGraphic"/>
      <feBlend in2="SourceGraphic" result="solidFill"/>
    </filter>
  </defs>
  <path d="M21.000,31.000 L21.000,31.500 L21.000,32.000 L21.101,32.000 C21.044,31.842 21.000,31.677 21.000,31.500 C21.000,30.671 21.672,30.000 22.500,30.000 C23.328,30.000 24.000,30.671 24.000,31.500 C24.000,31.677 23.956,31.842 23.899,32.000 L24.000,32.000 C24.000,34.209 22.209,36.000 20.000,36.000 L4.000,36.000 C1.791,36.000 -0.000,34.209 -0.000,32.000 L-0.000,4.000 C-0.000,1.791 1.791,-0.000 4.000,-0.000 L20.000,-0.000 C22.209,-0.000 24.000,1.791 24.000,4.000 L24.000,26.000 L23.899,26.000 C23.956,26.158 24.000,26.323 24.000,26.500 C24.000,27.328 23.328,28.000 22.500,28.000 C21.672,28.000 21.000,27.328 21.000,26.500 C21.000,26.323 21.044,26.158 21.101,26.000 L21.000,26.000 L21.000,5.000 C21.000,3.895 20.105,3.000 19.000,3.000 L5.000,3.000 C3.895,3.000 3.000,3.895 3.000,5.000 L3.000,31.000 C3.000,32.105 3.895,33.000 5.000,33.000 L19.000,33.000 C20.105,33.000 21.000,32.105 21.000,31.000 ZM14.000,30.000 C14.000,31.105 13.105,32.000 12.000,32.000 C10.895,32.000 10.000,31.105 10.000,30.000 C10.000,28.895 10.895,28.000 12.000,28.000 C13.105,28.000 14.000,28.895 14.000,30.000 ZM11.000,30.000 C11.000,30.552 11.448,31.000 12.000,31.000 C12.552,31.000 13.000,30.552 13.000,30.000 C13.000,29.448 12.552,29.000 12.000,29.000 C11.448,29.000 11.000,29.448 11.000,30.000 ZM4.000,25.000 L4.000,7.000 C4.000,5.895 4.895,5.000 6.000,5.000 L18.000,5.000 C19.105,5.000 20.000,5.895 20.000,7.000 L20.000,25.000 C20.000,26.105 19.105,27.000 18.000,27.000 L6.000,27.000 C4.895,27.000 4.000,26.105 4.000,25.000 ZM17.000,26.000 C18.105,26.000 19.000,25.105 19.000,24.000 L19.000,8.000 C19.000,6.895 18.105,6.000 17.000,6.000 L7.000,6.000 C5.895,6.000 5.000,6.895 5.000,8.000 L5.000,24.000 C5.000,25.105 5.895,26.000 7.000,26.000 L17.000,26.000 ZM7.000,16.000 L7.000,22.000 C7.000,23.105 7.895,24.000 9.000,24.000 L11.000,24.000 L11.000,25.000 L8.000,25.000 C6.895,25.000 6.000,24.105 6.000,23.000 L6.000,17.000 C6.000,16.632 6.110,16.295 6.284,16.000 L7.000,16.000 ZM12.500,24.000 C12.776,24.000 13.000,24.224 13.000,24.500 C13.000,24.776 12.776,25.000 12.500,25.000 C12.224,25.000 12.000,24.776 12.000,24.500 C12.000,24.224 12.224,24.000 12.500,24.000 ZM13.820,23.820 C13.791,23.886 13.742,23.938 13.706,24.000 L13.000,24.000 C13.293,24.000 13.569,23.933 13.820,23.820 Z" class="cls-1"/>
</svg>
