<svg xmlns="http://www.w3.org/2000/svg" xmlns:xlink="http://www.w3.org/1999/xlink" preserveAspectRatio="xMidYMid" width="30.376" height="27.18" viewBox="0 0 30.376 27.18">
  <defs>
    <style>
      .cls-1 {
        fill: #999;
        fill-rule: evenodd;
      }
    </style>
  </defs>
  <g>
    <path d="M28.000,23.184 C28.000,25.393 26.209,27.184 24.000,27.184 L21.187,27.184 L16.375,27.184 L6.375,27.184 C4.166,27.184 2.375,25.393 2.375,23.184 L2.375,19.184 C2.375,18.507 2.548,17.874 2.848,17.319 C2.567,17.098 2.375,16.771 2.375,16.387 C2.375,15.722 2.914,15.184 3.578,15.184 C4.243,15.184 4.781,15.722 4.781,16.387 C4.781,16.525 4.745,16.654 4.702,16.777 L4.781,16.777 L4.781,22.777 C4.781,23.882 5.677,24.777 6.781,24.777 L14.375,24.777 L14.375,18.777 C14.375,17.673 15.270,16.777 16.375,16.777 L21.187,16.777 C22.292,16.777 23.187,17.673 23.187,18.777 L23.187,24.777 L23.594,24.777 C24.698,24.777 25.594,23.882 25.594,22.777 L25.594,16.777 L25.673,16.777 C25.629,16.654 25.594,16.525 25.594,16.387 C25.594,15.722 26.132,15.184 26.797,15.184 C27.461,15.184 28.000,15.722 28.000,16.387 C28.000,16.771 27.808,17.098 27.527,17.319 C27.827,17.874 28.000,18.507 28.000,19.184 L28.000,23.184 ZM21.587,19.189 C21.587,18.748 21.229,18.389 20.787,18.389 L16.787,18.389 C16.346,18.389 15.987,18.748 15.987,19.189 L15.987,24.789 L21.587,24.789 L21.587,19.189 ZM26.000,6.402 L24.781,6.402 L24.781,6.399 C24.349,6.390 24.000,6.033 24.000,5.590 C24.000,5.147 24.349,4.790 24.781,4.781 L24.781,4.740 C25.240,4.649 25.594,4.263 25.594,3.777 L25.594,3.402 C25.594,2.850 25.146,2.402 24.594,2.402 L5.781,2.402 C5.229,2.402 4.781,2.850 4.781,3.402 L4.781,3.777 C4.781,4.330 5.229,4.777 5.781,4.777 L20.000,4.777 L20.000,4.781 C20.432,4.790 20.781,5.147 20.781,5.590 C20.781,6.033 20.432,6.390 20.000,6.399 L20.000,6.402 L4.375,6.402 C3.270,6.402 2.375,5.507 2.375,4.402 L2.375,1.996 C2.375,0.892 3.270,-0.004 4.375,-0.004 L26.000,-0.004 C27.105,-0.004 28.000,0.892 28.000,1.996 L28.000,4.402 C28.000,5.507 27.105,6.402 26.000,6.402 Z" class="cls-1"/>
    <path d="M9.984,23.996 C9.769,23.996 9.594,23.814 9.594,23.590 C9.594,23.366 9.769,23.184 9.984,23.184 C10.200,23.184 10.375,23.366 10.375,23.590 C10.375,23.814 10.200,23.996 9.984,23.996 ZM7.781,23.996 L6.594,23.996 C6.041,23.996 5.594,23.548 5.594,22.996 L5.594,18.590 C5.594,18.105 5.946,17.719 6.405,17.628 C6.397,17.679 6.375,17.724 6.375,17.777 L6.375,22.184 C6.375,22.736 6.823,23.184 7.375,23.184 L8.743,23.184 C8.653,23.643 8.267,23.996 7.781,23.996 Z" class="cls-1"/>
    <path d="M30.375,9.996 C30.375,12.430 28.409,14.402 25.984,14.402 C24.496,14.402 23.183,13.658 22.389,12.521 C21.592,13.658 20.275,14.402 18.781,14.402 C17.296,14.402 15.986,13.666 15.187,12.540 C14.389,13.666 13.079,14.402 11.594,14.402 C10.100,14.402 8.783,13.658 7.986,12.521 C7.192,13.658 5.879,14.402 4.391,14.402 C1.966,14.402 -0.000,12.430 -0.000,9.996 C-0.000,9.859 0.008,9.724 0.020,9.590 L0.156,9.590 C0.123,9.486 0.128,9.370 0.187,9.268 L2.587,5.111 C2.698,4.920 2.942,4.854 3.134,4.965 L3.827,5.365 C4.018,5.475 4.083,5.720 3.973,5.911 L1.598,10.024 C1.622,11.548 2.861,12.777 4.391,12.777 C5.935,12.777 7.187,11.525 7.187,9.981 C7.187,9.847 7.166,9.719 7.148,9.590 L8.821,9.590 C8.802,9.719 8.781,9.847 8.781,9.981 C8.781,11.525 10.033,12.777 11.578,12.777 C13.123,12.777 14.375,11.525 14.375,9.981 C14.375,9.847 14.354,9.719 14.336,9.590 L16.039,9.590 C16.021,9.719 16.000,9.847 16.000,9.981 C16.000,11.525 17.252,12.777 18.797,12.777 C20.342,12.777 21.594,11.525 21.594,9.981 C21.594,9.847 21.573,9.719 21.554,9.590 L23.227,9.590 C23.209,9.719 23.188,9.847 23.188,9.981 C23.188,11.525 24.440,12.777 25.984,12.777 C27.529,12.777 28.781,11.525 28.781,9.981 C28.781,9.958 28.776,9.937 28.775,9.915 L26.498,5.871 C26.387,5.676 26.453,5.425 26.644,5.312 L27.336,4.903 C27.527,4.790 27.771,4.857 27.881,5.052 L30.277,9.308 C30.327,9.397 30.337,9.496 30.319,9.590 L30.355,9.590 C30.367,9.724 30.375,9.859 30.375,9.996 Z" class="cls-1"/>
  </g>
</svg>
