<?xml version="1.0" standalone="no"?><!DOCTYPE svg PUBLIC "-//W3C//DTD SVG 1.1//EN" "http://www.w3.org/Graphics/SVG/1.1/DTD/svg11.dtd"><svg t="1503308768306" class="icon" style="" viewBox="0 0 1024 1024" version="1.1" xmlns="http://www.w3.org/2000/svg" p-id="4834" xmlns:xlink="http://www.w3.org/1999/xlink" width="16" height="16"><defs><style type="text/css"></style></defs><path d="M935.17958 424.679235c24.198122-14.09502 24.888853-24.882714 24.888853-43.656289L960.068434 250.047939c0-36.165688-33.441647-65.48341-74.691119-65.48341L138.604266 184.564529c-41.2331 0-74.674747 29.317723-74.674747 65.48341l0 130.975007c0 19.563568 1.547239 32.608675 24.888853 43.656289 33.997302 13.884218 74.674747 41.947368 74.674747 87.318718 0 58.889225-42.190915 78.040401-73.192999 87.219457-21.844517 11.973706-26.370601 31.689746-26.370601 43.74941l0 130.975007c0 36.174897 33.441647 65.493643 74.674747 65.493643l746.773048 0c41.250496 0 74.691119-29.318746 74.691119-65.493643L960.068434 642.96682c0-23.842011-6.245238-31.396057-24.888853-43.656289-54.377468-24.578792-74.691119-46.459125-74.691119-87.312578C860.488461 471.13836 879.506607 450.808336 935.17958 424.679235L935.17958 424.679235zM661.344888 501.086439c0 6.02625-5.554506 10.911514-12.43624 10.911514L536.891412 511.997953l0 43.656289 112.017236 0c6.882757 0 12.43624 4.889357 12.43624 10.92277l0 21.817911c0 6.03546-5.554506 10.921747-12.43624 10.921747L536.891412 599.316671l0 76.410274c0 6.01704-5.572926 10.902304-12.43931 10.902304l-24.905226 0c-6.866385 0-12.440333-4.885264-12.440333-10.902304l0-76.410274L375.090329 599.316671c-6.882757 0-12.452613-4.885264-12.452613-10.921747L362.637716 566.577013c0-6.033413 5.569856-10.92277 12.452613-10.92277l112.016213 0 0-43.656289L375.090329 511.997953c-6.882757 0-12.452613-4.885264-12.452613-10.911514l0-21.835308c0-6.027274 5.569856-10.915607 12.452613-10.915607l94.244454 0-102.320387-96.383164c-4.376681-4.198625-4.376681-11.008728 0-15.20633l15.851013-15.186887c4.376681-4.198625 11.461029-4.198625 15.821337 0l113.193015 106.624413 113.130593-106.591667c4.40738-4.231371 11.543917-4.231371 15.969717 0l15.969717 15.315824c4.394077 4.231371 4.394077 11.081383 0 15.315824l-102.019535 96.113011 93.977371 0c6.866385 0 12.43624 4.888334 12.43624 10.915607L661.343865 501.086439 661.344888 501.086439zM661.344888 501.086439" p-id="4835" fill="#ea5514"></path></svg>