<svg xmlns="http://www.w3.org/2000/svg" xmlns:xlink="http://www.w3.org/1999/xlink" preserveAspectRatio="xMidYMid" width="8.5" height="16.562" viewBox="0 0 8.5 16.562">
  <defs>
    <style>
      .cls-1, .cls-2 {
        fill: #999;
      }

      .cls-1 {
        fill-rule: evenodd;
      }
    </style>
  </defs>
  <g>
    <path d="M8.500,8.281 C8.500,8.728 8.307,9.127 8.002,9.410 L8.058,9.467 L2.646,14.817 C2.577,14.978 2.447,15.107 2.284,15.176 L2.234,15.225 L2.203,15.193 C2.141,15.211 2.080,15.231 2.012,15.231 C1.633,15.231 1.325,14.929 1.325,14.556 C1.325,14.485 1.345,14.421 1.366,14.357 L1.338,14.329 L1.392,14.274 C1.456,14.140 1.564,14.035 1.697,13.966 L6.054,9.558 C6.048,9.554 6.044,9.548 6.038,9.544 C6.437,9.263 6.700,8.804 6.700,8.281 C6.700,7.758 6.437,7.298 6.038,7.018 C6.044,7.014 6.048,7.008 6.054,7.004 L0.442,1.337 L0.484,1.295 C0.207,1.216 -0.000,0.971 -0.000,0.668 C-0.000,0.303 0.297,0.006 0.662,0.006 C0.965,0.006 1.210,0.213 1.289,0.490 L1.338,0.441 L8.058,7.095 L8.001,7.151 C8.306,7.434 8.500,7.834 8.500,8.281 ZM0.662,15.231 C1.028,15.231 1.325,15.528 1.325,15.893 C1.325,16.259 1.028,16.556 0.662,16.556 C0.297,16.556 -0.000,16.259 -0.000,15.893 C-0.000,15.528 0.297,15.231 0.662,15.231 Z" class="cls-1"/>
    <rect x="0.75" y="14.781" width="1" height="1" class="cls-2"/>
  </g>
</svg>
