<svg xmlns="http://www.w3.org/2000/svg" xmlns:xlink="http://www.w3.org/1999/xlink" preserveAspectRatio="xMidYMid" width="11" height="21.594" viewBox="0 0 11 21.594">
  <defs>
    <style>
      .cls-1 {
        fill: #f5b090;
        fill-rule: evenodd;
      }
    </style>
  </defs>
  <path d="M11.188,11.094 C11.188,11.693 10.933,12.230 10.530,12.611 L10.600,12.682 L3.311,19.888 C3.219,20.079 3.066,20.234 2.873,20.322 L2.800,20.393 L2.760,20.354 C2.676,20.379 2.592,20.406 2.500,20.406 C1.999,20.406 1.594,20.001 1.594,19.500 C1.594,19.408 1.621,19.324 1.646,19.240 L1.600,19.193 L1.706,19.086 C1.789,18.927 1.916,18.801 2.073,18.715 L7.906,12.816 C7.905,12.815 7.904,12.814 7.903,12.813 C8.452,12.435 8.813,11.807 8.813,11.094 C8.813,10.381 8.452,9.752 7.903,9.374 C7.904,9.374 7.904,9.373 7.905,9.373 L0.400,1.793 L0.461,1.732 C0.090,1.625 -0.188,1.297 -0.188,0.891 C-0.188,0.399 0.211,0.000 0.703,0.000 C1.109,0.000 1.438,0.277 1.545,0.648 L1.600,0.593 L10.600,9.505 L10.529,9.576 C10.933,9.958 11.188,10.495 11.188,11.094 ZM0.703,20.406 C1.195,20.406 1.594,20.805 1.594,21.297 C1.594,21.789 1.195,22.187 0.703,22.187 C0.211,22.187 -0.188,21.789 -0.188,21.297 C-0.188,20.805 0.211,20.406 0.703,20.406 Z" class="cls-1"/>
</svg>
