<svg xmlns="http://www.w3.org/2000/svg" xmlns:xlink="http://www.w3.org/1999/xlink" preserveAspectRatio="xMidYMid" width="23.813" height="24.5" viewBox="0 0 23.813 24.5">
  <defs>
    <style>
      .cls-1 {
        fill: #666;
        fill-rule: evenodd;
      }
    </style>
  </defs>
  <path d="M4.219,9.453 C4.219,9.652 4.058,9.812 3.859,9.812 C3.661,9.812 3.500,9.652 3.500,9.453 C3.500,9.255 3.661,9.094 3.859,9.094 C4.058,9.094 4.219,9.255 4.219,9.453 ZM9.106,3.500 L9.106,4.188 C6.644,4.189 4.627,6.023 4.288,8.399 L3.570,8.399 C3.916,5.643 6.248,3.502 9.106,3.500 ZM14.719,9.094 C14.719,9.136 14.707,9.176 14.706,9.218 L14.706,8.970 C14.707,9.012 14.719,9.051 14.719,9.094 ZM23.812,23.453 C23.812,24.031 23.344,24.500 22.766,24.500 C22.271,24.500 21.875,24.149 21.766,23.687 L21.654,23.800 L14.365,16.511 C12.881,17.564 11.070,18.187 9.109,18.187 C4.078,18.187 -0.000,14.116 -0.000,9.094 C-0.000,4.071 4.078,-0.000 9.109,-0.000 C14.140,-0.000 18.219,4.071 18.219,9.094 C18.219,9.543 18.173,9.981 18.108,10.412 C18.174,10.549 18.219,10.697 18.219,10.859 C18.219,11.437 17.743,11.906 17.156,11.906 C16.569,11.906 16.094,11.437 16.094,10.859 C16.094,10.743 16.125,10.637 16.161,10.532 C16.086,10.542 16.008,10.541 15.935,10.557 C16.036,10.084 16.094,9.596 16.094,9.094 C16.094,5.228 12.960,2.094 9.094,2.094 C5.228,2.094 2.094,5.228 2.094,9.094 C2.094,12.960 5.228,16.094 9.094,16.094 C11.105,16.094 12.906,15.234 14.182,13.875 C14.248,14.036 14.333,14.187 14.430,14.328 L14.758,14.000 L23.106,22.347 L23.000,22.454 C23.462,22.563 23.812,22.958 23.812,23.453 Z" class="cls-1"/>
</svg>
