<svg xmlns="http://www.w3.org/2000/svg" xmlns:xlink="http://www.w3.org/1999/xlink" preserveAspectRatio="xMidYMid" width="35.657" height="31.938" viewBox="0 0 35.657 31.938">
  <defs>
    <style>
      .cls-1 {
        fill: #fff;
        fill-rule: evenodd;
      }
    </style>
  </defs>
  <path d="M35.607,17.833 C35.514,18.682 34.807,19.325 33.931,19.426 C33.528,19.472 33.115,19.433 32.624,19.433 C32.624,18.010 32.641,16.638 32.621,15.266 C32.585,12.784 31.960,10.474 30.584,8.412 C28.480,5.258 25.517,3.389 21.923,2.557 C17.736,1.589 13.667,1.959 9.853,4.063 C6.145,6.108 3.812,9.247 3.206,13.557 C3.003,15.002 3.100,16.491 3.066,17.960 C3.056,18.434 3.065,18.909 3.065,19.553 C2.372,19.437 1.733,19.378 1.125,19.205 C0.847,19.126 0.583,18.860 0.395,18.613 C-0.337,17.650 -0.021,15.583 0.894,14.809 C1.095,14.640 1.192,14.262 1.216,13.970 C1.345,12.394 1.726,10.891 2.351,9.448 C3.704,6.327 5.883,3.958 8.814,2.391 C14.297,-0.539 19.973,-0.738 25.618,1.767 C30.480,3.925 33.500,7.739 34.399,13.172 C34.430,13.360 34.432,13.552 34.445,13.743 C34.480,14.254 34.509,14.723 35.034,15.058 C35.307,15.232 35.513,15.666 35.567,16.013 C35.660,16.608 35.672,17.233 35.607,17.833 ZM5.832,13.244 C6.153,13.237 6.390,13.251 6.558,12.833 C8.321,8.435 11.599,5.920 16.135,5.288 C20.679,4.654 24.548,6.166 27.467,9.852 C28.159,10.726 28.611,11.806 29.127,12.816 C29.275,13.105 29.385,13.246 29.726,13.251 C31.310,13.269 32.196,14.210 32.207,15.840 C32.209,16.222 32.207,16.604 32.206,16.987 C32.206,17.426 32.215,17.865 32.204,18.304 C32.169,19.670 31.240,20.651 29.906,20.682 C29.516,20.691 29.320,20.779 29.200,21.195 C27.899,25.704 24.946,28.769 20.883,30.708 C17.492,32.327 18.201,32.307 14.849,30.703 C11.250,28.981 8.490,26.324 6.935,22.499 C6.749,22.043 6.591,21.571 6.463,21.095 C6.378,20.778 6.228,20.693 5.914,20.685 C4.393,20.644 3.496,19.698 3.483,18.151 C3.476,17.311 3.469,16.470 3.486,15.630 C3.514,14.232 4.461,13.274 5.832,13.244 ZM9.315,23.089 C11.172,26.454 14.043,28.518 17.548,29.756 C17.738,29.823 18.000,29.826 18.182,29.746 C19.292,29.254 20.438,28.817 21.475,28.193 C22.502,27.575 23.414,26.758 24.377,26.028 C24.344,25.961 24.312,25.894 24.280,25.827 C22.813,25.827 21.346,25.820 19.880,25.840 C19.758,25.842 19.607,26.003 19.524,26.128 C18.910,27.055 17.811,27.281 16.999,26.635 C16.225,26.018 16.122,24.836 16.777,24.090 C17.463,23.309 18.591,23.333 19.356,24.119 C19.495,24.262 19.724,24.390 19.912,24.392 C21.687,24.413 23.463,24.415 25.237,24.389 C25.431,24.387 25.709,24.229 25.799,24.060 C26.281,23.159 26.793,22.262 27.145,21.306 C27.488,20.374 27.650,19.373 27.918,18.294 C26.954,18.294 26.129,18.365 25.319,18.281 C22.838,18.023 20.552,17.405 19.669,14.582 C17.898,16.126 15.708,16.428 13.556,16.891 C14.461,15.980 14.593,14.890 14.461,13.799 C13.694,14.206 12.987,14.696 12.208,14.967 C10.906,15.421 9.559,15.745 8.226,16.101 C7.943,16.177 7.752,16.237 7.761,16.600 C7.814,18.881 8.205,21.076 9.315,23.089 Z" class="cls-1"/>
</svg>
