<svg xmlns="http://www.w3.org/2000/svg" xmlns:xlink="http://www.w3.org/1999/xlink" preserveAspectRatio="xMidYMid" width="28" height="28" viewBox="0 0 28 28">
  <defs>
    <style>
      .cls-1 {
        fill: #ff7f00;
        fill-rule: evenodd;
      }
    </style>
  </defs>
  <g>
    <path d="M21.703,11.187 C19.749,11.187 18.032,10.188 17.028,8.677 L12.363,11.009 C12.499,11.523 12.594,12.053 12.594,12.609 C12.594,13.401 12.431,14.151 12.165,14.848 L15.478,16.744 C16.758,15.086 18.744,14.000 21.000,14.000 C24.866,14.000 28.000,17.134 28.000,21.000 C28.000,24.866 24.866,28.000 21.000,28.000 C17.134,28.000 14.000,24.866 14.000,21.000 C14.000,19.960 14.241,18.983 14.648,18.096 L11.386,16.290 C10.242,17.869 8.396,18.906 6.297,18.906 C2.819,18.906 -0.000,16.087 -0.000,12.609 C-0.000,9.132 2.819,6.312 6.297,6.312 C8.634,6.312 10.649,7.600 11.736,9.490 L16.351,7.182 C16.200,6.676 16.094,6.150 16.094,5.594 C16.094,2.504 18.605,-0.000 21.703,-0.000 C24.801,-0.000 27.312,2.504 27.312,5.594 C27.312,8.683 24.801,11.187 21.703,11.187 ZM21.000,25.906 C23.710,25.906 25.906,23.710 25.906,21.000 C25.906,18.290 23.710,16.094 21.000,16.094 C18.290,16.094 16.094,18.290 16.094,21.000 C16.094,23.710 18.290,25.906 21.000,25.906 ZM6.297,8.406 C3.976,8.406 2.094,10.288 2.094,12.609 C2.094,14.931 3.976,16.812 6.297,16.812 C8.618,16.812 10.500,14.931 10.500,12.609 C10.500,10.288 8.618,8.406 6.297,8.406 ZM21.687,2.094 C19.755,2.094 18.188,3.661 18.188,5.594 C18.188,7.527 19.755,9.094 21.687,9.094 C23.620,9.094 25.187,7.527 25.187,5.594 C25.187,3.661 23.620,2.094 21.687,2.094 Z" class="cls-1"/>
    <path d="M19.594,5.594 L18.908,5.594 C18.915,4.301 19.803,3.225 21.000,2.913 L21.000,3.628 C20.183,3.917 19.594,4.683 19.594,5.594 ZM3.600,11.906 L2.886,11.906 C3.160,10.537 4.228,9.454 5.594,9.169 L5.594,9.913 C4.618,10.167 3.855,10.933 3.600,11.906 ZM17.156,21.000 C17.346,21.000 17.500,21.154 17.500,21.344 C17.500,21.534 17.346,21.687 17.156,21.687 C16.966,21.687 16.812,21.534 16.812,21.344 C16.812,21.154 16.966,21.000 17.156,21.000 ZM20.312,16.882 L20.312,17.569 C18.932,17.844 17.849,18.932 17.573,20.312 L16.875,20.312 C17.167,18.555 18.553,17.174 20.312,16.882 Z" class="cls-1"/>
  </g>
</svg>
