<svg xmlns="http://www.w3.org/2000/svg" xmlns:xlink="http://www.w3.org/1999/xlink" preserveAspectRatio="xMidYMid" width="38" height="35" viewBox="0 0 38 35">
  <defs>
    <style>
      .cls-1 {
        fill: #ea5514;
        fill-rule: evenodd;
      }
    </style>
  </defs>
  <g>
    <path d="M35.042,23.999 C35.042,25.104 34.160,26.000 33.071,26.000 L11.000,26.000 C9.912,26.000 9.000,25.104 9.000,23.999 L6.000,9.999 C6.000,7.952 7.146,7.227 8.350,7.051 L9.522,10.565 C9.491,10.706 9.472,10.850 9.472,10.999 L11.472,20.999 C11.472,22.104 12.367,23.000 13.472,23.000 L30.582,23.000 C31.687,23.000 32.582,22.104 32.582,20.999 L34.546,9.999 C34.578,9.301 33.964,8.999 33.546,8.999 L14.003,8.999 C14.002,8.999 14.001,9.000 14.000,9.000 C13.448,9.000 13.000,8.552 13.000,8.000 C13.000,7.448 13.448,7.000 14.000,7.000 L14.000,6.999 L35.453,6.999 C36.860,6.999 38.000,7.895 38.000,8.999 L35.042,23.999 Z" class="cls-1"/>
    <path d="M7.056,1.185 L6.519,4.137 L1.600,3.242 L1.616,3.152 C1.451,3.178 1.281,3.184 1.108,3.152 C0.293,3.004 -0.248,2.223 -0.100,1.408 C0.048,0.593 0.829,0.053 1.644,0.201 C1.819,0.233 1.973,0.306 2.118,0.390 L2.136,0.290 L7.056,1.185 Z" class="cls-1"/>
    <path d="M8.583,9.250 L6.583,1.250 L4.000,2.999 L6.000,10.999 L8.583,9.250 Z" class="cls-1"/>
    <path d="M29.000,35.000 C26.791,35.000 25.000,33.209 25.000,31.000 C25.000,28.791 26.791,27.000 29.000,27.000 C31.209,27.000 33.000,28.791 33.000,31.000 C33.000,33.209 31.209,35.000 29.000,35.000 ZM29.000,30.000 C28.448,30.000 28.000,30.448 28.000,31.000 C28.000,31.552 28.448,32.000 29.000,32.000 C29.552,32.000 30.000,31.552 30.000,31.000 C30.000,30.448 29.552,30.000 29.000,30.000 ZM15.000,35.000 C12.791,35.000 11.000,33.209 11.000,31.000 C11.000,28.791 12.791,27.000 15.000,27.000 C17.209,27.000 19.000,28.791 19.000,31.000 C19.000,33.209 17.209,35.000 15.000,35.000 ZM15.000,30.000 C14.448,30.000 14.000,30.448 14.000,31.000 C14.000,31.552 14.448,32.000 15.000,32.000 C15.552,32.000 16.000,31.552 16.000,31.000 C16.000,30.448 15.552,30.000 15.000,30.000 Z" class="cls-1"/>
    <path d="M20.500,22.000 C20.224,22.000 20.000,21.776 20.000,21.500 C20.000,21.224 20.224,21.000 20.500,21.000 C20.776,21.000 21.000,21.224 21.000,21.500 C21.000,21.776 20.776,22.000 20.500,22.000 ZM15.000,21.899 C14.842,21.956 14.677,22.000 14.500,22.000 C13.672,22.000 13.000,21.328 13.000,20.500 C13.000,20.247 13.078,20.020 13.189,19.811 L11.526,13.158 L12.474,12.841 L14.037,19.093 C14.185,19.045 14.336,19.000 14.500,19.000 C14.589,19.000 14.666,19.036 14.750,19.050 C14.322,19.164 14.000,19.536 14.000,20.000 C14.000,20.552 14.448,21.000 15.000,21.000 C15.464,21.000 15.836,20.678 15.950,20.250 C15.964,20.334 16.000,20.411 16.000,20.500 C16.000,20.677 15.956,20.842 15.899,20.999 L18.000,20.999 L18.000,21.999 L15.000,21.999 L15.000,21.899 Z" class="cls-1"/>
  </g>
</svg>
