<svg xmlns="http://www.w3.org/2000/svg" xmlns:xlink="http://www.w3.org/1999/xlink" preserveAspectRatio="xMidYMid" width="30.469" height="27.84" viewBox="0 0 30.469 27.84">
  <defs>
    <style>
      .cls-1 {
        fill: #999;
        fill-rule: evenodd;
      }
    </style>
  </defs>
  <g>
    <path d="M28.102,19.028 C28.102,19.912 27.396,20.628 26.525,20.628 L8.868,20.628 C7.998,20.628 7.268,19.912 7.268,19.028 L4.868,7.828 C4.868,6.190 5.785,5.610 6.749,5.470 L7.686,8.281 C7.661,8.393 7.646,8.509 7.646,8.628 L9.246,16.628 C9.246,17.512 9.962,18.228 10.846,18.228 L24.534,18.228 C25.418,18.228 26.134,17.512 26.134,16.628 L27.706,7.828 C27.731,7.269 27.239,7.028 26.906,7.028 L11.268,7.028 L11.268,7.028 C11.267,7.028 11.266,7.029 11.265,7.029 C10.825,7.029 10.468,6.672 10.468,6.232 C10.468,5.792 10.825,5.435 11.265,5.435 C11.266,5.435 11.267,5.436 11.268,5.436 L11.268,5.428 L28.431,5.428 C29.556,5.428 30.468,6.145 30.468,7.028 L28.102,19.028 Z" class="cls-1"/>
    <path d="M5.713,0.777 L5.284,3.138 L1.348,2.422 L1.363,2.343 C1.230,2.365 1.094,2.376 0.955,2.351 C0.303,2.232 -0.130,1.607 -0.011,0.955 C0.107,0.303 0.732,-0.129 1.384,-0.011 C1.524,0.015 1.647,0.073 1.763,0.140 L1.777,0.061 L5.713,0.777 Z" class="cls-1"/>
    <path d="M6.935,7.228 L5.335,0.828 L3.268,2.228 L4.868,8.628 L6.935,7.228 Z" class="cls-1"/>
    <path d="M23.265,27.841 C21.496,27.841 20.062,26.407 20.062,24.638 C20.062,22.869 21.496,21.435 23.265,21.435 C25.034,21.435 26.468,22.869 26.468,24.638 C26.468,26.407 25.034,27.841 23.265,27.841 ZM23.265,23.841 C22.825,23.841 22.468,24.198 22.468,24.638 C22.468,25.078 22.825,25.435 23.265,25.435 C23.705,25.435 24.062,25.078 24.062,24.638 C24.062,24.198 23.705,23.841 23.265,23.841 ZM12.078,27.841 C10.309,27.841 8.875,26.407 8.875,24.638 C8.875,22.869 10.309,21.435 12.078,21.435 C13.847,21.435 15.281,22.869 15.281,24.638 C15.281,26.407 13.847,27.841 12.078,27.841 ZM12.078,23.841 C11.638,23.841 11.281,24.198 11.281,24.638 C11.281,25.078 11.638,25.435 12.078,25.435 C12.518,25.435 12.875,25.078 12.875,24.638 C12.875,24.198 12.518,23.841 12.078,23.841 Z" class="cls-1"/>
    <path d="M16.468,17.435 C16.244,17.435 16.062,17.253 16.062,17.029 C16.062,16.804 16.244,16.622 16.468,16.622 C16.693,16.622 16.875,16.804 16.875,17.029 C16.875,17.253 16.693,17.435 16.468,17.435 ZM12.068,17.355 C11.943,17.399 11.812,17.435 11.672,17.435 C11.007,17.435 10.468,16.896 10.468,16.232 C10.468,16.029 10.531,15.847 10.620,15.679 L9.289,10.355 L10.048,10.102 L11.298,15.104 C11.418,15.065 11.539,15.029 11.672,15.029 C11.744,15.029 11.806,15.058 11.875,15.070 C11.536,15.161 11.281,15.458 11.281,15.826 C11.281,16.266 11.638,16.622 12.078,16.622 C12.446,16.622 12.742,16.368 12.834,16.029 C12.846,16.097 12.875,16.160 12.875,16.232 C12.875,16.372 12.839,16.503 12.795,16.628 L14.468,16.628 L14.468,17.428 L12.068,17.428 L12.068,17.355 Z" class="cls-1"/>
  </g>
</svg>
