<svg xmlns="http://www.w3.org/2000/svg" xmlns:xlink="http://www.w3.org/1999/xlink" preserveAspectRatio="xMidYMid" width="30" height="53" viewBox="0 0 30 53">
  <defs>
    <style>
      .cls-1 {
        filter: url(#color-overlay-1);
      }

      .cls-2 {
        fill: #ea5514;
        fill-rule: evenodd;
      }
    </style>

    <filter id="color-overlay-1" filterUnits="userSpaceOnUse">
      <feFlood flood-color="#ea5514"/>
      <feComposite operator="in" in2="SourceGraphic"/>
      <feBlend in2="SourceGraphic" result="solidFill"/>
    </filter>
  </defs>
  <g class="cls-1">
    <path d="M14.500,18.999 C9.253,18.999 5.000,14.746 5.000,9.499 C5.000,4.253 9.253,-0.001 14.500,-0.001 C19.747,-0.001 24.000,4.253 24.000,9.499 C24.000,14.746 19.747,18.999 14.500,18.999 ZM14.500,3.000 C10.910,3.000 8.000,5.910 8.000,9.500 C8.000,13.089 10.910,15.999 14.500,15.999 C18.090,15.999 21.000,13.089 21.000,9.500 C21.000,5.910 18.090,3.000 14.500,3.000 Z" class="cls-2"/>
    <path d="M26.980,34.000 C26.774,25.673 21.497,18.999 15.000,18.999 C8.503,18.999 3.226,25.673 3.019,34.000 L0.020,34.000 C0.237,24.016 6.852,15.999 15.000,15.999 C23.147,15.999 29.763,24.016 29.979,34.000 L26.980,34.000 Z" class="cls-2"/>
    <path d="M28.500,36.000 C28.324,36.000 28.157,35.964 28.000,35.908 L28.000,36.000 L23.000,36.000 C22.448,36.000 22.000,35.552 22.000,35.000 C22.000,34.447 22.448,34.000 23.000,34.000 L27.092,34.000 C27.298,33.418 27.848,33.000 28.500,33.000 C29.328,33.000 30.000,33.671 30.000,34.500 C30.000,35.328 29.328,36.000 28.500,36.000 ZM15.000,36.000 L2.000,36.000 L2.000,35.908 C1.843,35.964 1.676,36.000 1.500,36.000 C0.671,36.000 -0.000,35.328 -0.000,34.500 C-0.000,33.671 0.671,33.000 1.500,33.000 C2.152,33.000 2.701,33.418 2.908,34.000 L15.000,34.000 C15.552,34.000 16.000,34.447 16.000,35.000 C16.000,35.552 15.552,36.000 15.000,36.000 Z" class="cls-2"/>
    <path d="M10.853,22.853 L10.877,22.877 C8.916,24.303 7.411,26.458 6.620,29.000 L6.500,29.000 L5.579,29.000 C6.383,26.198 7.989,23.806 10.111,22.198 C10.203,22.080 10.339,21.999 10.500,21.999 C10.776,21.999 11.000,22.223 11.000,22.500 C11.000,22.638 10.944,22.763 10.853,22.853 ZM7.000,29.500 C7.000,29.776 6.776,30.000 6.500,30.000 C6.224,30.000 6.000,29.776 6.000,29.500 C6.000,29.224 6.224,29.000 6.500,29.000 C6.776,29.000 7.000,29.224 7.000,29.500 ZM6.000,31.500 C6.000,31.776 5.776,32.000 5.500,32.000 C5.224,32.000 5.000,31.776 5.000,31.500 C5.000,31.223 5.224,30.999 5.500,30.999 C5.776,30.999 6.000,31.223 6.000,31.500 Z" class="cls-2"/>
  </g>
</svg>
